<svg xmlns="http://www.w3.org/2000/svg" width="60" height="60" viewBox="-0.5 -0.5 60 60">
  <defs>
    <radialGradient id="wheelgrad" cx="50%" cy="50%" r="60%">
      <stop offset="0%" stop-color="#FAFAFA"/>
      <stop offset="70%" stop-color="#F0F0F0"/>
      <stop offset="100%" stop-color="#E8E8E8"/>
    </radialGradient>
  </defs>

  <circle cx="30" cy="30" r="29.5" fill="url(#wheelgrad)" stroke="#D8D8D8" stroke-width="0.5"/>

  <g stroke-linecap="round" stroke-width="1.3" stroke="#C8C8C8" stroke-linejoin="round">
    <line transform="rotate(0 30 30)" x1="30" y1="0" x2="32.12" y2="2.12"/>
    <line transform="rotate(15 30 30)" x1="30" y1="0" x2="32.12" y2="2.12"/>
    <line transform="rotate(30 30 30)" x1="30" y1="0" x2="32.12" y2="2.12"/>
    <line transform="rotate(45 30 30)" x1="30" y1="0" x2="32.12" y2="2.12"/>
    <line transform="rotate(60 30 30)" x1="30" y1="0" x2="32.12" y2="2.12"/>
    <line transform="rotate(75 30 30)" x1="30" y1="0" x2="32.12" y2="2.12"/>
    <line transform="rotate(90 30 30)" x1="30" y1="0" x2="32.12" y2="2.12"/>
    <line transform="rotate(105 30 30)" x1="30" y1="0" x2="32.12" y2="2.12"/>
    <line transform="rotate(120 30 30)" x1="30" y1="0" x2="32.12" y2="2.12"/>
    <line transform="rotate(135 30 30)" x1="30" y1="0" x2="32.12" y2="2.12"/>
    <line transform="rotate(150 30 30)" x1="30" y1="0" x2="32.12" y2="2.12"/>
    <line transform="rotate(165 30 30)" x1="30" y1="0" x2="32.12" y2="2.12"/>
    <line transform="rotate(180 30 30)" x1="30" y1="0" x2="32.12" y2="2.12"/>
    <line transform="rotate(195 30 30)" x1="30" y1="0" x2="32.12" y2="2.12"/>
    <line transform="rotate(210 30 30)" x1="30" y1="0" x2="32.12" y2="2.12"/>
    <line transform="rotate(225 30 30)" x1="30" y1="0" x2="32.12" y2="2.12"/>
    <line transform="rotate(240 30 30)" x1="30" y1="0" x2="32.12" y2="2.12"/>
    <line transform="rotate(255 30 30)" x1="30" y1="0" x2="32.12" y2="2.12"/>
    <line transform="rotate(270 30 30)" x1="30" y1="0" x2="32.12" y2="2.12"/>
    <line transform="rotate(285 30 30)" x1="30" y1="0" x2="32.12" y2="2.12"/>
    <line transform="rotate(300 30 30)" x1="30" y1="0" x2="32.12" y2="2.12"/>
    <line transform="rotate(315 30 30)" x1="30" y1="0" x2="32.12" y2="2.12"/>
    <line transform="rotate(330 30 30)" x1="30" y1="0" x2="32.12" y2="2.12"/>
    <line transform="rotate(345 30 30)" x1="30" y1="0" x2="32.12" y2="2.12"/>
  </g>
</svg>
